PathFileType	4	(X/Y/Z)	C:/Users/beibeiliu/ov580/test_trc\sequence.39_training_dense_left.trc
DataRate	CameraRate	NumFrames	NumMarkers	Units	OrigDataRate	OrigDataStartFrame	OrigNumFrames
120	120	20	19	mm	120	1	82
Frame#	Time	ThumbCMC			ThumbMCP			ThumbIP			ThumbTip			IndexMCP			IndexPIP			IndexTip			MiddleMCP			MiddlePIP			MiddleTip			RingMCP			RingPIP			RingTip			PinkyMCP			PinkyPIP			PinkyTip			BackHand1			BackHand2			BackHand3	
		X0	Y0	Z0	X1	Y1	Z1	X2	Y2	Z2	X3	Y3	Z3	X4	Y4	Z4	X5	Y5	Z5	X6	Y6	Z6	X7	Y7	Z7	X8	Y8	Z8	X9	Y9	Z9	X10	Y10	Z10	X11	Y11	Z11	X12	Y12	Z12	X13	Y13	Z13	X14	Y14	Z14	X15	Y15	Z15	X16	Y16	Z16	X17	Y17	Z17	X18	Y18	Z18	
0	0	-156.799	31.457	64.8002	-143.325	17.6162	42.546	-132.482	13.1534	21.1005	-128.566	4.76161	-2.29162	-173.033	36.689	-0.806123	-165.615	28.9304	-23.4131	-155.208	10.5805	-44.773	-190.651	28.22	-7.02011	-187.03	16.3389	-32.6306	-177.188	-7.65035	-46.6232	-204.755	17.8052	-2.12182	-201.621	7.97091	-22.1636	-191.039	-10.5091	-35.4736	-220.823	1.6429	11.7951	-217.805	-7.3999	-4.11274	-204.358	-19.6477	-20.14	-210.302	30.1734	42.2436	-211.06	32.5429	73.2478	-189.018	44.8268	55.4369	
1	0.00833333	-161.353	21.185	19.7106	-145.583	7.34111	-0.646519	-141.51	-2.0357	-20.0588	-134.469	-13.7786	-41.3303	-183.93	21.5489	-43.553	-180.989	12.833	-68.5185	-175.467	-1.08417	-89.5908	-201.956	13.3739	-48.3059	-203.201	5.03738	-69.1792	-199.767	-17.0211	-90.6187	-218.807	0.871807	-35.9363	-214.653	-7.00788	-58.331	-208.839	-25.6087	-79.0939	-225.81	-11.1971	-18.8962	-227.439	-25.7142	-41.2527	-223.487	-35.3695	-55.3135	-216.302	15.722	8.46905	-212.887	23.7097	32.1112	-192.143	33.0021	12.2295	
2	0.0166667	-166.258	-2.28839	-27.6258	-154.128	-18.1229	-46.0679	-144.866	-28.6868	-70.7441	-140.351	-37.6269	-83.472	-190.406	-0.912509	-94.6399	-194.398	-8.90882	-113.238	-189.115	-17.5183	-135.514	-214.733	-9.88985	-89.298	-217.818	-17.3623	-114.301	-217.577	-32.5646	-136.84	-224.156	-18.9739	-78.3435	-228.614	-30.4585	-105.239	-228.826	-44.399	-122.945	-236.666	-33.434	-62.2062	-239.483	-46.4411	-81.1666	-235.038	-57.2425	-96.8877	-223.239	-6.04	-36.7268	-215.83	1.71493	-13.8846	-198.41	10.0089	-32.2934	
3	0.025	-164.157	-15.8061	-58.7815	-154.543	-34.2295	-72.7108	-144.489	-44.8598	-90.9495	-135.985	-54.5268	-103.395	-193.883	-19.0709	-118.707	-192.529	-26.9761	-142.752	-194.674	-40.5954	-157.022	-213.967	-24.9433	-113.027	-220.705	-36.4031	-140.118	-221.883	-54.8651	-158.742	-226.539	-33.9599	-104.342	-232.434	-46.1492	-126.797	-230.915	-57.3612	-141.939	-233.889	-45.6938	-84.792	-239.874	-57.9962	-104.744	-239.824	-72.6558	-119.35	-222.063	-20.1394	-64.5163	-219.337	-11.7996	-39.2863	-197.882	-3.01195	-61.6879	
4	0.0333333	-167.085	-22.4273	-55.3724	-152.123	-41.1274	-75.1274	-140.428	-51.443	-89.9771	-132.682	-63.6521	-105.373	-188.917	-24.8708	-118.492	-189.818	-35.9038	-140.021	-184.243	-52.9428	-157.677	-212.474	-31.5361	-121.228	-214.555	-47.5376	-144.389	-212.736	-67.2815	-157.366	-228.694	-43.4114	-104.066	-228.588	-54.8286	-130.753	-224.866	-73.8113	-143.987	-237.971	-55.596	-87.0837	-237.104	-64.2352	-106.112	-234.883	-82.01	-120.808	-222.826	-25.4521	-65.912	-214.819	-15.498	-44.2349	-197.776	-10.657	-63.2932	
5	0.0416667	-167.951	-21.2674	-49.2633	-153.831	-37.9872	-65.5997	-144.81	-49.4268	-85.6629	-135.732	-61.5661	-100.074	-187.461	-21.7301	-107.71	-188.041	-40.6396	-131.295	-176.911	-57.6492	-141.512	-214.5	-31.3462	-109.41	-211.989	-45.0837	-133.194	-203.272	-72.5791	-139.36	-228.326	-41.8127	-94.9854	-226.362	-56.4399	-120.561	-216.45	-74.3301	-128.717	-235.326	-52.7454	-79.0617	-235.237	-62.6585	-97.1901	-225.18	-82.0466	-108.912	-219.563	-23.7243	-53.0844	-217	-17.9387	-30.9268	-195.954	-7.80119	-51.6417	
6	0.05	-166.355	-14.3787	-31.203	-152.138	-30.268	-51.1222	-147.116	-40.7769	-66.9074	-141.677	-50.8459	-86.0829	-190.009	-17.2064	-93.502	-181.337	-29.2797	-110.462	-170.517	-53.3406	-116.195	-214.126	-23.9578	-92.587	-207.548	-36.0227	-114.739	-188.768	-64.7034	-113.641	-222.628	-32.557	-77.7234	-220.802	-47.1723	-102.633	-199.628	-67.1794	-107.488	-234.76	-49.2311	-63.4205	-229.32	-61.0442	-86.2051	-212.677	-74.1087	-92.7175	-217.669	-22.0195	-34.7491	-218.351	-17.8224	-10.2334	-200.669	-3.74784	-29.7749	
7	0.0583333	-166.497	-0.636857	-3.12811	-152.714	-14.1152	-27.0807	-145.323	-20.4478	-51.9434	-139.789	-29.3361	-69.0833	-189.883	1.89538	-68.7931	-176.392	-14.6807	-87.8001	-165.487	-35.3796	-88.7666	-212.209	-7.13371	-69.8799	-203.557	-20.9875	-91.1478	-176.951	-41.7385	-80.5868	-222.219	-17.5893	-57.1548	-217.142	-33.2205	-80.8725	-195.383	-47.8191	-79.2051	-233.233	-35.4011	-45.7236	-226.049	-42.5113	-65.4944	-200.758	-54.8521	-68.9105	-221.991	-15.4833	-10.7652	-218.285	-11.3721	11.4872	-200.69	9.23927	-5.44602	
8	0.0666667	-168.294	23.3476	22.9658	-154.674	14.1522	-2.57839	-149.172	10.3341	-23.0821	-143.321	4.79274	-46.3091	-191.894	32.9881	-36.124	-175.982	17.4591	-58.2217	-154.821	-0.737539	-56.4726	-212.352	22.0009	-37.7598	-199.317	5.75558	-62.4409	-175.651	-7.5248	-48.0538	-223.584	7.3859	-31.4898	-212.816	-3.32697	-54.1957	-186.139	-13.0954	-45.924	-229.37	-12.1608	-16.4331	-222.349	-14.2196	-40.6983	-195.75	-22.9156	-42.1266	-219.572	6.49988	15.0257	-216.802	4.2372	42.1626	-202.417	27.4332	26.0519	
9	0.075	-171.258	57.6978	59.3069	-151.456	56.3508	31.7159	-144.281	56.2729	12.1749	-142.767	49.9969	-8.92027	-192.008	74.9897	-0.607594	-179.859	64.1145	-20.5075	-156.945	46.2833	-23.4719	-212.191	64.4723	-5.67279	-196.202	55.727	-28.9604	-173.618	39.5932	-14.3253	-221.521	49.4545	-0.678038	-210.922	39.1877	-22.949	-184.637	30.4741	-12.322	-224.332	28.0313	12.9386	-216.06	24.9745	-12.8327	-191.819	22.7165	-9.60601	-221.632	37.1799	47.2641	-217.931	34.921	69.8473	-204.059	60.4706	62.0864	
10	0.0833333	-171.971	98.5115	93.7416	-154.301	98.3175	68.705	-146.576	100.691	46.4534	-141.27	99.8056	23.6483	-194.095	118.265	37.2959	-177.471	113.739	18.8034	-155.989	94.4572	12.9013	-213.866	109.594	29.6675	-197.445	104.936	8.63822	-175.017	84.9428	20.4523	-224.058	87.7382	33.7803	-208.979	87.4615	11.3787	-181.984	78.4074	23.2675	-224.441	70.7244	43.1506	-214.777	71.838	18.2045	-190.619	70.0359	23.6632	-222.267	75.3755	80.4127	-217.334	70.0945	100.899	-207.911	95.9747	97.3011	
11	0.0916667	-172.017	123.606	125.834	-150.378	131.449	101.353	-143.71	136.481	79.3141	-142.453	135.634	57.5269	-192.43	155.767	71.6957	-175.343	151.086	51.5251	-158.439	136.956	43.9437	-213.517	145.656	65.7427	-196.97	142.391	39.7039	-171.357	123.652	51.9519	-222.56	124.876	66.1582	-207.67	129.545	43.6281	-183.372	116.238	49.3053	-224.849	109.446	66.3994	-214.811	111.02	47.9929	-187.198	105.871	52.494	-223.207	108.35	108.388	-217.81	96.0077	130.058	-203.926	126.936	126.909	
12	0.1	-172.194	140.144	140.747	-154.023	144.26	117.183	-142.234	153.374	97.256	-138.213	157.594	75.9353	-190.357	174.412	92.1687	-173.537	172.541	73.5961	-156.889	159.67	63.9239	-211.412	166.247	85.0133	-194.317	162.714	60.1904	-171.907	144.581	67.4646	-222.715	143.466	83.0455	-202.989	150.61	62.3943	-180.987	136.656	69.3695	-223.682	122.76	85.672	-213.45	129.634	64.8925	-184.575	127.927	70.9735	-217.939	126.671	125.053	-213.076	109.507	148.267	-202.676	137.195	146.373	
13	0.108333	-168.668	142.68	149.086	-150.666	152.448	122.297	-143.566	161.162	101.617	-139.131	164.669	80.4006	-194.307	177.91	101.766	-178.001	179.921	81.5028	-154.854	165.837	68.994	-213.321	172.653	90.4153	-194.159	172.197	68.1708	-171.387	154.881	75.1077	-221.939	153.804	89.1825	-207.56	157.632	69.3157	-182.339	146.479	74.8687	-223.74	135.259	89.4823	-208.561	138.119	69.9727	-185.648	136.788	78.3096	-217.984	130.777	130.183	-214.531	115.607	152.154	-203.686	140.829	155.224	
14	0.116667	-167.759	145.981	149.866	-151.132	151.333	124.945	-143.013	160.346	103.383	-141.09	164.75	82.1524	-193.049	181.429	100.688	-177.899	180.8	81.2926	-156.281	167.98	70.3801	-211.913	175.173	95.7629	-195.231	176.671	70.6537	-170.885	153.333	80.3013	-222.234	157.355	92.4027	-207.222	161.345	70.0814	-184.486	150.93	75.5104	-226.655	135.626	89.5905	-214.623	141.668	71.4091	-185.247	137	79.021	-220.758	129.393	132.762	-212.554	118.19	151.673	-204.154	143.704	153.57	
15	0.125	-167.299	146.955	149.126	-152.678	151.699	121.364	-144.312	161.45	98.7324	-139.385	161.962	81.558	-190.335	185.935	103.768	-174.188	185.04	82.234	-156.464	165.848	67.6354	-212.933	177.859	97.0844	-192.38	179.235	70.8831	-173.038	157.421	78.4501	-223.546	161.566	95.8254	-209.443	167.346	73.4055	-186.878	151.339	75.7442	-229.068	140.777	93.1638	-215.873	148.536	74.7475	-189.694	142.741	80.6826	-220.115	138.766	133.371	-214.816	123.348	154.615	-203.681	152.281	155.07	
16	0.133333	-168.705	150.728	152.935	-152.443	153.554	121.427	-145.706	156.722	102.498	-141.434	159.563	79.0005	-189.438	188.152	104.816	-173.553	180.83	79.8068	-157.415	164.965	70.2723	-211.835	180.542	97.4086	-195.557	178.13	70.1094	-175.785	155.813	79.6122	-220.855	169.831	96.2774	-207.977	167.609	71.8705	-185.779	148.987	80.1175	-229.179	148.051	94.4497	-216.951	150.694	76.359	-193.379	143.222	82.5673	-222.799	144.118	139.118	-219.64	135.113	158.045	-206.156	159.299	155.397	
17	0.141667	-174.512	159.059	155.863	-156.24	153.34	132.972	-144.767	154.933	112.134	-135.312	154.703	90.4733	-185.572	189.68	102.936	-168.416	176.983	80.4897	-151.539	159.867	77.2326	-207.523	181.664	87.8917	-188.118	174.861	68.9179	-170.632	150.215	87.0842	-220.286	166.659	89.0742	-203.414	163.028	69.0423	-180.731	149.884	84.1471	-225.281	147.309	93.6108	-207.892	144.339	74.0022	-188.804	139.182	83.9896	-226.446	152.896	134.516	-228.299	141.651	155.002	-213.143	164.523	153.285	
18	0.15	-188.342	166.697	156.804	-164.834	163.281	142.153	-144.687	167.281	122.135	-135.841	163.907	105.781	-188.527	186.098	99.3079	-163.114	180.179	85.1839	-143.62	161.286	89.6008	-203.414	173.809	83.0684	-174.976	164.744	68.2347	-161.327	151.524	89.1349	-211.184	155.66	81.9777	-185.615	151.835	67.0812	-168.345	143.893	91.1355	-213.391	135.718	85.5331	-190.166	138.354	73.9147	-174.05	137.903	89.172	-228.203	145.586	125.403	-236.484	135.847	146.905	-222.757	160.064	143.727	
19	0.158333	-204.093	162.815	149.67	-176.682	176.145	144.398	-158.633	183.496	131.333	-140.005	187.29	118.643	-188.056	180.083	87.1892	-164.018	183.893	85.5227	-141.778	174.15	103.12	-191.767	162.831	71.6908	-163.331	169.593	70.0956	-151.953	159.908	97.0675	-190.14	142.045	71.0982	-166.787	149.743	69.6335	-155.795	149.302	98.6439	-189.953	121.229	81.2593	-166.21	130.229	74.8447	-156.03	137.517	97.8441	-220.709	129.059	108.665	-228.38	118.765	134.672	-227.903	150.153	130.952	
